<?xml version="1.0" encoding="UTF-8" standalone="no"?>
<!-- Created with Inkscape (http://www.inkscape.org/) -->

<svg
   xmlns:dc="http://purl.org/dc/elements/1.1/"
   xmlns:cc="http://creativecommons.org/ns#"
   xmlns:rdf="http://www.w3.org/1999/02/22-rdf-syntax-ns#"
   xmlns:svg="http://www.w3.org/2000/svg"
   xmlns="http://www.w3.org/2000/svg"
   xmlns:xlink="http://www.w3.org/1999/xlink"
   xmlns:sodipodi="http://sodipodi.sourceforge.net/DTD/sodipodi-0.dtd"
   xmlns:inkscape="http://www.inkscape.org/namespaces/inkscape"
   width="310"
   height="190"
   id="svg2052"
   sodipodi:version="0.32"
   inkscape:version="0.48.5 r10040"
   version="1.0"
   sodipodi:docname="kipi-logo.svg"
   inkscape:export-filename="/home/wally/Desktop/kipi-hybrid2.png"
   inkscape:export-xdpi="89.419998"
   inkscape:export-ydpi="89.419998">
  <defs
     id="defs2054">
    <linearGradient
       id="linearGradient610">
      <stop
         style="stop-color:#a89f9f;stop-opacity:1;"
         offset="0"
         id="stop611" />
      <stop
         style="stop-color:#525252;stop-opacity:1;"
         offset="1"
         id="stop612" />
    </linearGradient>
    <linearGradient
       xlink:href="#linearGradient610"
       id="linearGradient613"
       x1="183.59398"
       y1="246.02464"
       x2="368.13855"
       y2="435.15115"
       gradientTransform="scale(1.016784,0.983493)"
       gradientUnits="userSpaceOnUse" />
    <linearGradient
       id="linearGradient616">
      <stop
         style="stop-color:#deff12;stop-opacity:1;"
         offset="0"
         id="stop617" />
      <stop
         style="stop-color:#efaa00;stop-opacity:1;"
         offset="1"
         id="stop618" />
    </linearGradient>
    <linearGradient
       xlink:href="#linearGradient616"
       id="linearGradient619"
       x1="292.90677"
       y1="378.85536"
       x2="351.51759"
       y2="438.09572"
       gradientTransform="scale(1.474979,0.677976)"
       gradientUnits="userSpaceOnUse" />
    <linearGradient
       inkscape:collect="always"
       xlink:href="#linearGradient610"
       id="linearGradient2075"
       gradientUnits="userSpaceOnUse"
       gradientTransform="scale(1.016784,0.983493)"
       x1="183.59398"
       y1="246.02464"
       x2="368.13855"
       y2="435.15115" />
    <linearGradient
       inkscape:collect="always"
       xlink:href="#linearGradient616"
       id="linearGradient2041"
       gradientUnits="userSpaceOnUse"
       gradientTransform="scale(1.474979,0.677976)"
       x1="292.90677"
       y1="378.85536"
       x2="351.51759"
       y2="438.09572" />
    <linearGradient
       inkscape:collect="always"
       xlink:href="#linearGradient616"
       id="linearGradient2043"
       gradientUnits="userSpaceOnUse"
       gradientTransform="scale(1.474979,0.677976)"
       x1="292.90677"
       y1="378.85536"
       x2="351.51759"
       y2="438.09572" />
    <linearGradient
       inkscape:collect="always"
       xlink:href="#linearGradient610"
       id="linearGradient2045"
       gradientUnits="userSpaceOnUse"
       gradientTransform="matrix(0.28107,0,0,0.271867,135.2167,35.29152)"
       x1="183.59398"
       y1="246.02464"
       x2="368.13855"
       y2="435.15115" />
  </defs>
  <sodipodi:namedview
     id="base"
     pagecolor="black"
     bordercolor="#666666"
     borderopacity="1.0"
     inkscape:pageopacity="0"
     inkscape:pageshadow="2"
     inkscape:zoom="2.8"
     inkscape:cx="86.27854"
     inkscape:cy="72.624991"
     inkscape:document-units="px"
     inkscape:current-layer="layer2"
     width="310px"
     height="190px"
     inkscape:window-width="1272"
     inkscape:window-height="950"
     inkscape:window-x="1663"
     inkscape:window-y="43"
     showgrid="false"
     inkscape:window-maximized="0" />
  <metadata
     id="metadata2057">
    <rdf:RDF>
      <cc:Work
         rdf:about="">
        <dc:format>image/svg+xml</dc:format>
        <dc:type
           rdf:resource="http://purl.org/dc/dcmitype/StillImage" />
        <dc:title>KIPI logo</dc:title>
        <dc:creator>
          <cc:Agent>
            <dc:title>Valerio Fuoglio</dc:title>
          </cc:Agent>
        </dc:creator>
        <dc:rights>
          <cc:Agent>
            <dc:title />
          </cc:Agent>
        </dc:rights>
        <cc:license
           rdf:resource="" />
      </cc:Work>
    </rdf:RDF>
  </metadata>
  <g
     inkscape:groupmode="layer"
     id="layer3"
     inkscape:label="plug"
     style="display:inline" />
  <g
     inkscape:label="Livello 1"
     inkscape:groupmode="layer"
     id="layer1"
     style="display:inline">
    <path
       clip-rule="evenodd"
       d="M 14.058476,7.6886644 L 296.8922,7.6886644 C 301.86421,7.6886644 305.94453,11.328347 305.94453,15.821082 L 305.94453,172.37821 C 305.94453,176.81329 301.8651,180.45297 296.8922,180.45297 L 14.058476,180.45297 C 9.0864814,180.45297 5.006169,176.81407 5.006169,172.37821 L 5.006169,15.821082 C 5.006169,11.328347 9.0864814,7.6886644 14.058476,7.6886644 z "
       id="path2937"
       style="fill:#0068c6;fill-rule:evenodd;fill-opacity:1"
       sodipodi:nodetypes="ccccccccc" />
    <path
       sodipodi:nodetypes="ccccccccc"
       style="fill:white;fill-rule:evenodd"
       id="path2935"
       d="M 16.732988,10.320441 L 293.86055,10.320441 C 298.73224,10.320441 302.73024,13.841711 302.73024,18.188279 L 302.73024,169.65199 C 302.73024,173.94278 298.73312,177.46405 293.86055,177.46405 L 16.732988,177.46405 C 11.861304,177.46405 7.8633118,173.94354 7.8633118,169.65199 L 7.8633118,18.188279 C 7.8633118,13.841711 11.861304,10.320441 16.732988,10.320441 z "
       clip-rule="evenodd" />
    <path
       clip-rule="evenodd"
       d="M 18.954005,12.463298 L 291.99668,12.463298 C 296.79655,12.463298 300.73562,15.89428 300.73562,20.129398 L 300.73562,167.70944 C 300.73562,171.89021 296.79742,175.32119 291.99668,175.32119 L 18.954005,175.32119 C 14.15413,175.32119 10.215069,171.89095 10.215069,167.70944 L 10.215069,20.129398 C 10.215069,15.89428 14.15413,12.463298 18.954005,12.463298 z "
       id="path1067"
       style="fill:#0068c6;fill-rule:evenodd;fill-opacity:1"
       sodipodi:nodetypes="ccccccccc" />
  </g>
  <g
     inkscape:groupmode="layer"
     id="layer2"
     inkscape:label="ipi"
     style="display:inline">
    <g
       id="g2026"
       transform="translate(0,-4)">
      <path
         style="fill:white;fill-rule:evenodd;display:inline"
         id="path1084"
         d="M 72.216369,26.435215 L 96.316461,24.681094 C 96.316461,39.171655 96.316461,53.58595 96.316461,68.000245 C 105.92599,53.509684 116.60325,39.095389 128.65223,25.138691 L 154.50645,31.697576 C 142.91506,44.586549 131.09275,58.924578 121.63681,73.262607 C 130.71248,88.515829 140.70334,102.47359 154.04991,118.33588 L 129.11195,125.73369 C 115.15525,110.09914 106.76598,95.074714 96.316461,78.906299 L 96.316461,121.84412 L 72.216369,124.89582 L 72.216369,26.435215 L 72.216369,26.435215 z "
         clip-rule="evenodd" />
      <path
         style="fill:white;fill-rule:evenodd;display:inline"
         id="path1086"
         d="M 96.546321,145.56394 C 110.65555,142.58849 107.07104,138.31866 118.58617,145.03008 L 126.0613,150.29137 C 127.43515,150.97778 128.73062,152.19908 130.02714,150.90151 C 132.84899,148.23219 135.59457,145.48766 138.41641,142.81835 C 139.63667,141.52077 138.41641,140.07065 137.80629,139.08025 L 137.72896,139.08025 L 132.31513,131.37844 L 128.72956,132.67603 C 127.81543,133.28616 126.59411,132.98003 125.52744,131.53204 L 117.59577,121.15878 C 110.27422,131.30218 98.452971,137.86106 85.030135,137.86106 C 62.914022,137.86106 44.91522,119.86438 44.91522,97.746146 C 44.91522,82.035328 53.990888,68.383694 67.183865,61.824808 L 67.183865,52.596609 C 66.726269,52.825407 66.269731,52.97794 65.886282,53.130472 C 60.701246,55.265923 60.395122,56.257382 51.929584,51.376351 L 44.456565,46.037724 C 43.082715,45.427595 41.786191,44.131071 40.490727,45.427595 C 37.668881,48.173175 34.923301,50.918755 32.101455,53.664335 C 30.881197,54.884592 32.177721,56.409915 32.711584,57.401374 L 38.429423,65.485582 L 42.625119,71.434338 C 43.235247,72.273266 43.462987,72.349532 43.158981,72.959661 C 42.77871,73.569789 42.472586,74.103652 42.091256,74.713781 C 36.52383,84.323311 40.413401,85.085972 28.515888,88.212883 L 19.440221,89.738205 C 18.06849,90.195802 16.238104,90.195802 16.160778,92.102454 C 16.160778,95.992026 16.084512,99.881595 16.084512,103.77117 C 16.008246,105.5253 17.992224,105.67889 19.136216,105.98289 L 28.823071,107.73701 L 36.068352,109.03459 C 37.059811,109.18818 37.286491,109.03459 37.516348,109.79619 C 40.491786,122.68516 44.380298,119.63557 37.89662,130.8467 L 32.635317,138.39598 C 31.948922,139.69356 30.727605,140.99008 32.025189,142.28555 C 34.770768,145.10739 37.439023,147.8551 40.184603,150.67694 C 41.404861,151.89508 42.930183,150.60067 43.922702,150.06682 L 52.00585,144.34686 L 58.030873,140.22742 C 58.870859,139.54104 58.947125,139.31329 59.557254,139.69356 C 71.606241,147.24496 72.063837,141.82901 75.572078,154.56652 L 77.249933,163.64006 C 77.707529,165.01391 77.783795,166.76804 79.614182,166.84429 C 83.503754,166.84429 87.469592,166.84429 91.359161,166.84429 C 93.113281,166.84429 93.266871,164.86033 93.494611,163.71632 L 95.172471,153.95532 L 96.316461,146.78419 C 96.392731,146.09779 96.392731,145.79062 96.546321,145.56394 z M 111.11315,139.46265 C 111.03688,139.5368 110.95956,139.5368 110.88329,139.5368 C 110.95956,139.5368 110.95956,139.46265 111.03688,139.46265 L 111.11315,139.46265 z M 97.306861,145.25781 C 97.079121,145.33408 96.773001,145.41141 96.545261,145.56394 C 96.696731,145.41034 96.926591,145.33408 97.306861,145.25781 z "
         clip-rule="evenodd" />
      <path
         style="fill:white;fill-rule:evenodd;display:inline"
         id="path1088"
         d="M 85.3352,134.96294 C 97.994321,134.96294 109.12917,128.55553 115.84059,118.79242 L 115.38299,118.03082 C 107.52758,126.72408 98.758041,132.36778 85.258934,132.6739 C 68.480389,132.97791 51.473047,117.95455 51.395721,98.276835 C 51.244248,85.616657 57.11568,77.074853 67.10654,70.973564 L 67.10654,65.634936 C 55.895422,71.965023 48.26987,84.091335 48.26987,97.89656 C 48.26987,118.25854 64.894823,134.96294 85.3352,134.96294 z "
         clip-rule="evenodd" />
      <g
         id="g2006"
         style="display:inline">
        <g
           id="g654"
           transform="matrix(0.321775,0,0,0.202669,109.3365,90.80475)">
          <path
             style="font-size:12px;fill:url(#linearGradient2041);fill-rule:evenodd;stroke:#da6d00;stroke-width:8.94388962"
             d="M 445.8627,250.6016 C 445.5426,249.6783 553.5527,247.8569 554.3144,250.4038 C 576.618,262.7523 575.1416,299.3077 556.3294,313.6764 C 547.1875,313.427 447.4558,315.5964 442.5106,314.1833 C 397.3899,299.9316 422.9359,254.3613 445.8627,250.6016 z "
             id="path655"
             sodipodi:nodetypes="ccccc"
             sodipodi:stroke-cmyk="(0 0.5 1 0.1466)" />
          <path
             style="font-size:12px;fill-opacity:0.45;fill-rule:evenodd"
             d="M 457.1213,245.6608 L 457.1213,318.0827 L 488.5497,318.0827 C 483.0839,298.0414 481.7175,265.7021 488.5497,245.6608 L 457.1213,245.6608 z "
             id="path656"
             sodipodi:nodetypes="ccccc" />
        </g>
        <g
           id="g651"
           transform="matrix(0.321775,0,0,0.202669,109.3365,58.75348)">
          <path
             style="font-size:12px;fill:url(#linearGradient2043);fill-rule:evenodd;stroke:#da6d00;stroke-width:8.94388962"
             d="M 445.8627,250.6016 C 445.5426,249.6783 553.5527,247.8569 554.3144,250.4038 C 576.618,262.7523 575.1416,299.3077 556.3294,313.6764 C 547.1875,313.427 447.4558,315.5964 442.5106,314.1833 C 397.3899,299.9316 422.9359,254.3613 445.8627,250.6016 z "
             id="path607"
             sodipodi:nodetypes="ccccc"
             sodipodi:stroke-cmyk="(0 0.5 1 0.1466)" />
          <path
             style="font-size:12px;fill-opacity:0.45;fill-rule:evenodd"
             d="M 457.1213,245.6608 L 457.1213,318.0827 L 488.5497,318.0827 C 483.0839,298.0414 481.7175,265.7021 488.5497,245.6608 L 457.1213,245.6608 z "
             id="path648"
             sodipodi:nodetypes="ccccc" />
        </g>
        <path
           style="font-size:12px;fill:url(#linearGradient2045);fill-rule:evenodd;stroke:#313131;stroke-width:2.64938402"
           d="M 257.25983,93.099888 L 201.60382,93.096323 C 183.28171,93.095134 178.5073,137.90012 178.93253,154.96661 C 179.14353,163.43399 189.31961,168.8466 198.40979,168.79671 L 256.66089,168.47701 L 257.25983,93.099888 z "
           id="path606"
           sodipodi:nodetypes="cssscc" />
      </g>
      <text
         transform="scale(0.923679,1.082627)"
         id="text2071"
         y="120.63637"
         x="172.36639"
         style="font-size:111.22277069px;font-style:normal;font-weight:normal;fill:white;fill-opacity:1;stroke:none;stroke-width:1px;stroke-linecap:butt;stroke-linejoin:miter;stroke-opacity:1;font-family:Brushstroke"
         xml:space="preserve"><tspan
           y="120.63637"
           x="172.36639"
           id="tspan2073"
           sodipodi:role="line">ipi</tspan></text>
    </g>
  </g>
</svg>
